REM DIRINDEX 1\2,1\3,1\4,1\5
REM DIRNAME cjc046,folder01,folder02,folder03,folder04
TITLE ""
FILE "139.mp3" MP3
  TRACK 01 AUDIO
    TITLE "0:"
    INDEX 01 00:00:00
  TRACK 02 AUDIO
    TITLE "2:cjc046_3690"
    INDEX 01 00:00:13
  TRACK 03 AUDIO
    TITLE "0:"
    INDEX 01 00:01:32
  TRACK 04 AUDIO
    TITLE "3:cjc046_3691"
    INDEX 01 00:01:46
  TRACK 05 AUDIO
    TITLE "0:"
    INDEX 01 00:03:10
  TRACK 06 AUDIO
    TITLE "4:cjc046_3692"
    INDEX 01 00:03:31
  TRACK 07 AUDIO
    TITLE "0:"
    INDEX 01 00:04:48
  TRACK 08 AUDIO
    TITLE "2:cjc046_3693"
    INDEX 01 00:05:54
  TRACK 09 AUDIO
    TITLE "0:"
    INDEX 01 00:06:63
  TRACK 10 AUDIO
    TITLE "3:cjc046_3694"
    INDEX 01 00:07:09
  TRACK 11 AUDIO
    TITLE "0:"
    INDEX 01 00:08:24
  TRACK 12 AUDIO
    TITLE "4:cjc046_3695"
    INDEX 01 00:08:34
  TRACK 13 AUDIO
    TITLE "0:"
    INDEX 01 00:09:42
  TRACK 14 AUDIO
    TITLE "2:cjc046_3696"
    INDEX 01 00:10:51
  TRACK 15 AUDIO
    TITLE "0:"
    INDEX 01 00:11:60
  TRACK 16 AUDIO
    TITLE "3:cjc046_3697"
    INDEX 01 00:12:05
  TRACK 17 AUDIO
    TITLE "0:"
    INDEX 01 00:13:28
  TRACK 18 AUDIO
    TITLE "4:cjc046_3698"
    INDEX 01 00:13:41
  TRACK 19 AUDIO
    TITLE "0:"
    INDEX 01 00:14:49
  TRACK 20 AUDIO
    TITLE "2:cjc046_3699"
    INDEX 01 00:15:58
  TRACK 21 AUDIO
    TITLE "0:"
    INDEX 01 00:17:08
  TRACK 22 AUDIO
    TITLE "3:cjc046_3700"
    INDEX 01 00:17:21
  TRACK 23 AUDIO
    TITLE "0:"
    INDEX 01 00:18:48
  TRACK 24 AUDIO
    TITLE "4:cjc046_3701"
    INDEX 01 00:18:64
  TRACK 25 AUDIO
    TITLE "0:"
    INDEX 01 00:20:16
  TRACK 26 AUDIO
    TITLE "2:cjc046_3702"
    INDEX 01 00:21:23
  TRACK 27 AUDIO
    TITLE "0:"
    INDEX 01 00:22:36
  TRACK 28 AUDIO
    TITLE "3:cjc046_3703"
    INDEX 01 00:22:50
  TRACK 29 AUDIO
    TITLE "0:"
    INDEX 01 00:24:14
  TRACK 30 AUDIO
    TITLE "4:cjc046_3704"
    INDEX 01 00:24:24
  TRACK 31 AUDIO
    TITLE "0:"
    INDEX 01 00:25:37
  TRACK 32 AUDIO
    TITLE "2:cjc046_3705"
    INDEX 01 00:26:38
  TRACK 33 AUDIO
    TITLE "0:"
    INDEX 01 00:27:47
  TRACK 34 AUDIO
    TITLE "3:cjc046_3706"
    INDEX 01 00:27:67
  TRACK 35 AUDIO
    TITLE "0:"
    INDEX 01 00:29:11
  TRACK 36 AUDIO
    TITLE "4:cjc046_3707"
    INDEX 01 00:29:21
  TRACK 37 AUDIO
    TITLE "0:"
    INDEX 01 00:30:30
  TRACK 38 AUDIO
    TITLE "2:cjc046_3708"
    INDEX 01 00:31:33
  TRACK 39 AUDIO
    TITLE "0:"
    INDEX 01 00:32:48
  TRACK 40 AUDIO
    TITLE "3:cjc046_3709"
    INDEX 01 00:32:70
  TRACK 41 AUDIO
    TITLE "0:"
    INDEX 01 00:34:42
  TRACK 42 AUDIO
    TITLE "4:cjc046_3710"
    INDEX 01 00:34:57
  TRACK 43 AUDIO
    TITLE "0:"
    INDEX 01 00:35:70
  TRACK 44 AUDIO
    TITLE "2:cjc046_3711"
    INDEX 01 00:37:05
  TRACK 45 AUDIO
    TITLE "0:"
    INDEX 01 00:38:30
  TRACK 46 AUDIO
    TITLE "3:cjc046_3712"
    INDEX 01 00:38:49
  TRACK 47 AUDIO
    TITLE "0:"
    INDEX 01 00:40:17
  TRACK 48 AUDIO
    TITLE "4:cjc046_3713"
    INDEX 01 00:40:28
  TRACK 49 AUDIO
    TITLE "0:"
    INDEX 01 00:41:55
  TRACK 50 AUDIO
    TITLE "2:cjc046_3714"
    INDEX 01 00:42:63
  TRACK 51 AUDIO
    TITLE "0:"
    INDEX 01 00:43:72
  TRACK 52 AUDIO
    TITLE "3:cjc046_3715"
    INDEX 01 00:44:12
  TRACK 53 AUDIO
    TITLE "0:"
    INDEX 01 00:45:41
  TRACK 54 AUDIO
    TITLE "4:cjc046_3716"
    INDEX 01 00:45:59
  TRACK 55 AUDIO
    TITLE "0:"
    INDEX 01 00:46:68
  TRACK 56 AUDIO
    TITLE "2:cjc046_3717"
    INDEX 01 00:48:02
  TRACK 57 AUDIO
    TITLE "0:"
    INDEX 01 00:49:23
  TRACK 58 AUDIO
    TITLE "3:cjc046_3718"
    INDEX 01 00:49:35
  TRACK 59 AUDIO
    TITLE "0:"
    INDEX 01 00:50:56
  TRACK 60 AUDIO
    TITLE "4:cjc046_3719"
    INDEX 01 00:50:70
  TRACK 61 AUDIO
    TITLE "0:"
    INDEX 01 00:52:16
  TRACK 62 AUDIO
    TITLE "2:cjc046_3720"
    INDEX 01 00:53:23
  TRACK 63 AUDIO
    TITLE "0:"
    INDEX 01 00:54:29
  TRACK 64 AUDIO
    TITLE "3:cjc046_3721"
    INDEX 01 00:54:48
  TRACK 65 AUDIO
    TITLE "0:"
    INDEX 01 00:55:59
  TRACK 66 AUDIO
    TITLE "4:cjc046_3722"
    INDEX 01 00:56:00
  TRACK 67 AUDIO
    TITLE "0:"
    INDEX 01 00:57:07
  TRACK 68 AUDIO
    TITLE "2:cjc046_3723"
    INDEX 01 00:58:17
  TRACK 69 AUDIO
    TITLE "0:"
    INDEX 01 00:59:30
  TRACK 70 AUDIO
    TITLE "3:cjc046_3724"
    INDEX 01 00:59:49
  TRACK 71 AUDIO
    TITLE "0:"
    INDEX 01 01:01:56
  TRACK 72 AUDIO
    TITLE "4:cjc046_3725"
    INDEX 01 01:01:74
  TRACK 73 AUDIO
    TITLE "0:"
    INDEX 01 01:03:12
  TRACK 74 AUDIO
    TITLE "2:cjc046_3726"
    INDEX 01 01:04:15
  TRACK 75 AUDIO
    TITLE "0:"
    INDEX 01 01:05:15
  TRACK 76 AUDIO
    TITLE "3:cjc046_3727"
    INDEX 01 01:05:36
  TRACK 77 AUDIO
    TITLE "0:"
    INDEX 01 01:06:36
  TRACK 78 AUDIO
    TITLE "4:cjc046_3728"
    INDEX 01 01:06:49
  TRACK 79 AUDIO
    TITLE "0:"
    INDEX 01 01:07:51
